<svg width="45" height="38" viewBox="0 0 45 38" fill="none" xmlns="http://www.w3.org/2000/svg">
<path d="M45 34.4149L22.5 10.0375L0 34.4149L5.07868e-07 21.5847L45 21.5847L45 34.4149Z" fill="#00D681"/>
<path fill-rule="evenodd" clip-rule="evenodd" d="M23.2259 34.4379C31.6941 34.4379 38.559 27.5261 38.559 19C38.559 10.4739 31.6941 3.56208 23.2259 3.56208C14.7577 3.56208 7.89285 10.4739 7.89285 19C7.89285 27.5261 14.7577 34.4379 23.2259 34.4379ZM23.2259 38C33.6481 38 42.0969 29.4934 42.0969 19C42.0969 8.50659 33.6481 0 23.2259 0C12.8038 0 4.35496 8.50659 4.35496 19C4.35496 29.4934 12.8038 38 23.2259 38Z" fill="#00D681"/>
</svg>
