<svg width="21" height="19" viewBox="0 0 21 19" fill="none" xmlns="http://www.w3.org/2000/svg">
<path d="M21 17.2901L10.5 5.74289L0 17.2901L2.37005e-07 11.2126L21 11.2126L21 17.2901Z" fill="#00D681"/>
<path fill-rule="evenodd" clip-rule="evenodd" d="M10.8388 17.301C14.7906 17.301 17.9942 14.027 17.9942 9.98828C17.9942 5.94959 14.7906 2.67558 10.8388 2.67558C6.88693 2.67558 3.68333 5.94959 3.68333 9.98828C3.68333 14.027 6.88693 17.301 10.8388 17.301ZM10.8388 18.9883C15.7024 18.9883 19.6452 14.9588 19.6452 9.98828C19.6452 5.01772 15.7024 0.988281 10.8388 0.988281C5.97509 0.988281 2.03231 5.01772 2.03231 9.98828C2.03231 14.9588 5.97509 18.9883 10.8388 18.9883Z" fill="#00D681"/>
</svg>
