<svg width="60" height="35" viewBox="0 0 60 35" fill="none" xmlns="http://www.w3.org/2000/svg">
<path d="M7.90639 13.63C7.6792 13.7658 7.35829 13.8831 6.94366 13.9819C6.53471 14.0868 5.98376 14.1393 5.29081 14.1393C4.60354 14.1393 3.93048 14.059 3.27161 13.8985C2.03908 13.6022 1.18426 13.0713 0.707146 12.3058C0.235716 11.5342 0 10.5712 0 9.4168V4.85174C0 2.96893 0.55095 1.65404 1.65285 0.907089C2.54459 0.302119 3.84812 -0.000366211 5.56345 -0.000366211C8.31819 0.00580696 9.95115 0.848444 10.4623 2.52754C10.6327 3.09548 10.7179 3.77761 10.7179 4.57395V4.78692L8.23015 4.99064V4.44431C8.23015 3.55538 8.03135 2.95349 7.63376 2.63866C7.23617 2.31766 6.53755 2.15716 5.53789 2.15716C4.54391 2.15716 3.79416 2.33 3.28865 2.6757C2.78882 3.0214 2.53891 3.63872 2.53891 4.52765V9.69459C2.53891 10.602 2.79734 11.2101 3.31421 11.5188C3.83108 11.8274 4.58083 11.9817 5.56345 11.9817C6.54607 11.9817 7.27025 11.8274 7.736 11.5188C8.20743 11.2101 8.44315 10.602 8.44315 9.69459V8.69454H5.90424V6.88889H10.7265V13.8985H9.38885L8.98841 12.3244C8.91457 12.596 8.77258 12.8491 8.56242 13.0837C8.35795 13.3121 8.13927 13.4942 7.90639 13.63Z" fill="#333333"/>
<path d="M15.6134 6.53702H18.7232C19.3195 6.53702 19.7285 6.35491 19.95 5.99069C20.1772 5.6203 20.2908 5.06163 20.2908 4.31468C20.2908 2.89485 19.8023 2.18493 18.8254 2.18493H15.6134V6.53702ZM13.083 13.8985V0.231128H18.5102C20.1346 0.231128 21.2394 0.589171 21.8244 1.30526C22.4151 2.02135 22.7104 2.99362 22.7104 4.22208C22.7104 5.44437 22.5457 6.33639 22.2163 6.89815C21.8925 7.45373 21.441 7.85499 20.8616 8.10191L23.2898 13.8985H20.6657L18.459 8.50008H15.6134V13.8985H13.083Z" fill="#333333"/>
<path d="M27.7082 9.4631H31.6443L29.7103 2.27753L27.7082 9.4631ZM23.8316 13.8985L27.9723 0.231128H31.3291L35.5208 13.8985H32.8371L32.13 11.2965H27.2055L26.4728 13.8985H23.8316Z" fill="#333333"/>
<path d="M36.8636 13.8985V0.231128H38.7635L45.2982 9.60199V0.231128H47.5474V13.8985H45.6475L39.1384 4.67581V13.8985H36.8636Z" fill="#333333"/>
<path d="M49.9125 13.8985V0.231128H55.3652C57.3759 0.231128 58.7277 0.87931 59.4207 2.17567C59.8069 2.90411 60 3.84552 60 4.9999V9.19456C60 11.5033 59.1935 12.9571 57.5804 13.5559C56.9669 13.7843 56.2314 13.8985 55.3737 13.8985H49.9125ZM52.4429 11.7595H55.1522C56.0156 11.7595 56.6176 11.5867 56.9584 11.241C57.2992 10.8953 57.4696 10.3304 57.4696 9.54644V4.63877C57.4696 3.86712 57.2935 3.2961 56.9414 2.92571C56.5949 2.55532 55.9985 2.37013 55.1522 2.37013H52.4429V11.7595Z" fill="#333333"/>
<path d="M5.52084 34.9996C4.48711 34.9996 3.65216 34.9194 3.01602 34.7589C2.37987 34.5984 1.86868 34.3854 1.48245 34.12C1.1019 33.8545 0.798023 33.515 0.570827 33.1014C0.343632 32.6816 0.190274 32.2526 0.110756 31.8143C0.0369175 31.376 0 30.8636 0 30.2772V25.7121C0 24.0824 0.303874 22.9404 0.911621 22.286C1.51937 21.6255 2.32591 21.2026 3.33125 21.0174C3.89924 20.9063 4.54106 20.8538 5.25673 20.86C7.85244 20.86 9.4002 21.6316 9.90003 23.1749C10.1272 23.8663 10.2408 24.6935 10.2408 25.6565V25.8232L7.76156 26.1381V25.4436C7.76156 24.4929 7.58832 23.8509 7.24185 23.5175C6.90106 23.1842 6.24503 23.0175 5.27377 23.0175C4.30251 23.0175 3.60104 23.1873 3.16937 23.5268C2.74338 23.8602 2.53039 24.4806 2.53039 25.388V30.555C2.53039 31.4686 2.74906 32.0797 3.18641 32.3884C3.62944 32.6909 4.33091 32.8421 5.29081 32.8421C5.79632 32.8421 6.19675 32.8143 6.4921 32.7588C6.78746 32.697 7.03453 32.5767 7.23333 32.3976C7.43781 32.2186 7.57696 31.981 7.6508 31.6846C7.72464 31.3883 7.76156 30.9933 7.76156 30.4994V30.0642H10.2408V30.3142C10.2408 31.6661 10.0562 32.6446 9.68704 33.2495C9.32353 33.8483 8.79814 34.2897 8.11087 34.5737C7.4236 34.8577 6.56026 34.9996 5.52084 34.9996Z" fill="#333333"/>
<path d="M17.36 34.9996C14.8949 34.9996 13.2705 34.3329 12.4866 32.9995C12.0436 32.2587 11.8221 31.2988 11.8221 30.1197V25.8417C11.8221 23.9219 12.3702 22.5792 13.4664 21.8138C14.3695 21.1841 15.6787 20.8662 17.3941 20.86C19.7853 20.86 21.3643 21.5699 22.1311 22.9897C22.5628 23.7861 22.7786 24.783 22.7786 25.9806V29.9716C22.7786 31.8359 22.239 33.1816 21.1598 34.0088C20.2965 34.6694 19.0299 34.9996 17.36 34.9996ZM14.361 30.4253C14.361 31.3204 14.6138 31.947 15.1193 32.305C15.6248 32.6631 16.3774 32.8421 17.377 32.8421C18.3824 32.8421 19.1094 32.6662 19.5581 32.3143C20.0125 31.9563 20.2397 31.3266 20.2397 30.4253V25.4714C20.2397 24.5824 20.0097 23.9528 19.5496 23.5824C19.0895 23.2058 18.3653 23.0175 17.377 23.0175C16.3944 23.0175 15.6447 23.2027 15.1278 23.5731C14.6166 23.9435 14.361 24.5762 14.361 25.4714V30.4253Z" fill="#333333"/>
<path d="M27.4185 27.3974H30.5282C31.1246 27.3974 31.5336 27.2153 31.7551 26.8511C31.9823 26.4807 32.0959 25.922 32.0959 25.175C32.0959 23.7552 31.6074 23.0453 30.6305 23.0453H27.4185V27.3974ZM24.8881 34.7589V21.0915H30.3152C31.9397 21.0915 33.0444 21.4495 33.6294 22.1656C34.2201 22.8817 34.5155 23.854 34.5155 25.0824C34.5155 26.3047 34.3508 27.1968 34.0214 27.7585C33.6976 28.3141 33.246 28.7154 32.6667 28.9623L35.0948 34.7589H32.4707L30.2641 29.3604H27.4185V34.7589H24.8881Z" fill="#333333"/>
<path d="M36.6591 34.7589V21.0915H44.8978V23.1657H39.181V26.7955H44.2503V28.7771H39.181V32.6847H44.9915V34.7589H36.6591Z" fill="#333333"/>
</svg>
