<svg width="21" height="16" viewBox="0 0 21 16" fill="none" xmlns="http://www.w3.org/2000/svg">
<path d="M1.39425 6.96817L13.3068 2.21894C14.4827 1.72427 18.4707 0.141239 18.4707 0.141239C18.4707 0.141239 20.3114 -0.551282 20.1579 1.1306C20.1068 1.82312 19.698 4.2473 19.2887 6.86903L18.0107 14.6358C18.0107 14.6358 17.9084 15.7737 17.0377 15.9715C16.1671 16.1694 14.737 15.279 14.4816 15.081C14.2771 14.9327 10.647 12.7065 9.31763 11.6181C8.95971 11.3214 8.55079 10.7276 9.36879 10.0351C11.2094 8.40256 13.4079 6.37421 14.737 5.08802C15.3506 4.49435 15.9641 3.10916 13.4078 4.79133L6.19893 9.49106C6.19893 9.49106 5.38078 9.98573 3.84708 9.54055C2.31338 9.09537 0.523919 8.5017 0.523919 8.5017C0.523919 8.5017 -0.703159 7.75968 1.39307 6.96831L1.39425 6.96817Z" fill="#171717"/>
</svg>
