<svg width="21" height="12" viewBox="0 0 21 12" fill="none" xmlns="http://www.w3.org/2000/svg">
<path fill-rule="evenodd" clip-rule="evenodd" d="M19.7081 0.812527C19.8472 0.344211 19.7081 0 19.0464 0H16.8584C16.302 0 16.0457 0.297316 15.9066 0.625263C15.9066 0.625263 14.7938 3.36521 13.2175 5.145C12.7076 5.66021 12.4758 5.82395 12.1976 5.82395C12.0585 5.82395 11.8572 5.66021 11.8572 5.1919V0.812527C11.8572 0.250422 11.6958 0 11.2321 0H7.79377C7.44619 0 7.23708 0.260842 7.23708 0.508106C7.23708 1.041 8.02508 1.16384 8.10635 2.66258V5.91789C8.10635 6.63158 7.97882 6.76105 7.70063 6.76105C6.95889 6.76105 5.15472 4.00863 4.08447 0.859421C3.87473 0.247263 3.66437 0 3.10518 0H0.917167C0.292021 0 0.166992 0.297316 0.166992 0.625263C0.166992 1.21074 0.908884 4.11474 3.62092 7.95537C5.42916 10.578 7.97632 12 10.2944 12C11.6853 12 11.8572 11.6842 11.8572 11.1403V9.15789C11.8572 8.52632 11.989 8.40032 12.4292 8.40032C12.754 8.40032 13.3102 8.56421 14.6085 9.82879C16.092 11.3274 16.3364 12 17.171 12H19.359C19.9841 12 20.2967 11.6842 20.1163 11.061C19.9191 10.4398 19.2108 9.53889 18.2709 8.47058C17.7609 7.86158 16.9959 7.20584 16.7643 6.87805C16.4397 6.45647 16.5324 6.26921 16.7643 5.89468C16.7643 5.89468 19.4299 2.10079 19.7081 0.812685V0.812527Z" fill="#171717"/>
</svg>
