<svg width="21" height="14" viewBox="0 0 21 14" fill="none" xmlns="http://www.w3.org/2000/svg">
<path fill-rule="evenodd" clip-rule="evenodd" d="M17.9923 0.428723C18.849 0.659312 19.5244 1.33461 19.755 2.19108C20.1834 3.75578 20.1669 7.01696 20.1669 7.01696C20.1669 7.01696 20.1669 10.2617 19.755 11.8264C19.5244 12.6828 18.849 13.3581 17.9923 13.5887C16.4272 14.0005 10.167 14.0005 10.167 14.0005C10.167 14.0005 3.92315 14.0005 2.34161 13.5723C1.48494 13.3417 0.809494 12.6664 0.578852 11.8099C0.166992 10.2617 0.166992 7.00049 0.166992 7.00049C0.166992 7.00049 0.166992 3.75578 0.578852 2.19108C0.809494 1.33461 1.50142 0.642841 2.34161 0.412253C3.90668 0.000488281 10.167 0.000488281 10.167 0.000488281C10.167 0.000488281 16.4272 0.000488281 17.9923 0.428723ZM13.3795 7.00049L8.17354 9.99813V4.00284L13.3795 7.00049Z" fill="#171717"/>
</svg>
