<svg width="21" height="16" viewBox="0 0 21 16" fill="none" xmlns="http://www.w3.org/2000/svg">
<path fill-rule="evenodd" clip-rule="evenodd" d="M17.667 0.5H2.667C2.00395 0.5 1.36807 0.76339 0.899226 1.23223C0.430385 1.70107 0.166995 2.33696 0.166995 3V13C0.166995 13.663 0.430385 14.2989 0.899226 14.7678C1.36807 15.2366 2.00395 15.5 2.667 15.5H17.667C18.33 15.5 18.9659 15.2366 19.4348 14.7678C19.9036 14.2989 20.167 13.663 20.167 13V3C20.167 2.33696 19.9036 1.70107 19.4348 1.23223C18.9659 0.76339 18.33 0.5 17.667 0.5ZM17.667 13H2.667V5.18749L4.417 6.49998L9.417 10.25C9.63337 10.4123 9.89653 10.5 10.167 10.5C10.4375 10.5 10.7006 10.4123 10.917 10.25L15.917 6.49998L17.667 5.18749V13ZM10.167 7.6875L5.91699 4.50002L3.91696 3H16.417L14.417 4.50002L10.167 7.6875Z" fill="#171717"/>
</svg>
